<?xml version="1.0" encoding="UTF-8"?>
<svg id="Capa_2" data-name="Capa 2" xmlns="http://www.w3.org/2000/svg" viewBox="0 0 726.41 111.47">
  <g id="Capa_1-2" data-name="Capa 1">
    <g>
      <polygon points="241.77 3.4 254.94 83.52 268.32 3.4 309.77 3.4 312.57 107.21 286.24 107.21 285.59 13.3 267.84 107.23 241.34 107.21 224.07 14.6 223.2 107.21 196.87 107.21 199.46 3.4 241.77 3.4"/>
      <polygon points="576.14 3.4 600.32 84.81 599.89 3.4 625.15 3.4 625.15 106.35 588.66 106.35 562.33 21.48 563.41 106.35 537.94 106.35 537.94 3.4 576.14 3.4"/>
      <path d="M436.7,3.4h25.47l.65.65v80.98c0,.17,1.44,2.64,1.73,3.01,4.07,5.23,13.41,4.87,16.85-.84.28-.47,1.28-2.29,1.28-2.6V4.04l.65-.65h25.47l.67,1.49c-.86,24.36,1.07,49.42,0,73.7-.9,20.39-10.02,30.41-30.87,31.66-22.26,1.34-41.14-3.78-42.56-29.08-1.4-24.95,1.11-51.19,0-76.28l.67-1.49Z"/>
      <path d="M699.84,37v-6.68c0-.87-.62-4.13-.96-5.08-2.52-6.99-14.62-7.46-18.66-1.57-1.47,2.14-1.83,5.36-1.99,7.92-1,15.86.8,32.74,0,48.71.3,7.69,5.43,10.8,12.77,10.12,13.22-1.22,7.69-17.49,8.83-26.29h-10.79v-15.08h37.13c-1.47,15.03,4.3,37.86-6.69,49.97-11.56,12.74-40.65,13.06-54.75,4.65-8.27-4.93-11.81-13.11-12.41-22.51-1.07-16.83.85-34.77,0-51.73,1.5-23.42,20.45-29.84,41.27-28.65,18.79,1.08,31.5,9.31,32.57,29.1.11,2.09.42,5.44-.64,7.1h-25.69Z"/>
      <path d="M72.53,33.98h-25.9v-7.97c0-2.49-2.47-5.88-4.73-6.91-11-5.02-19.47,6.93-11.9,15.32,6.59,7.3,24.42,13.38,33.43,20.49,12.15,9.59,14.97,24.68,9.44,39.05-7.41,19.23-39.44,20.42-55.7,14-8.29-3.27-17.16-12.7-17.16-22.08v-12.71h28.06v12.71c0,1.56,3.28,4.91,4.74,5.61,11.96,5.71,21.47-7.67,12.75-17.46C34.01,61.1,6.21,57.85,1.42,37.51-6.25,4.89,27.21-4.51,52.68,1.89c9.01,2.26,19.86,9.92,19.86,20.25v11.85Z"/>
      <polygon points="176.58 107.21 148.52 107.21 134.48 12.44 120.02 107.21 91.96 107.21 111.17 3.82 112.44 3.37 156.09 3.38 157.38 3.81 176.58 107.21"/>
      <path d="M409.71,33.98h-25.9v-8.83c0-1.76-2.91-4.99-4.58-5.77-10.04-4.65-18.7,6.06-12.48,14.18,7.17,9.36,28.52,14.8,38.44,25.4,12.12,12.96,9.27,39.47-7.57,47.6-19.13,9.24-55.42,5.8-59.46-19.93-.48-3.04-1.07-9.97-.55-12.81.09-.48.22-.81.65-1.08h26.77l.65.65v12.06c0,2.28,3.24,5.12,5.32,5.89,5.14,1.93,12.32.92,14.32-4.83,3.45-9.94-3.97-14.75-11.3-19.29-16.92-10.49-37.37-15.86-35.53-40.35S364.5-1.14,383.97,1.3c11.33,1.42,25.74,8.36,25.74,21.7v10.98Z"/>
    </g>
  </g>
</svg>